<svg xmlns="http://www.w3.org/2000/svg" width="2124.638" height="1250.317" viewBox="0 0 2124.638 1250.317">
  <g id="Group_10103" data-name="Group 10103" transform="translate(136.539 -695.754)">
    <g id="Group_10033" data-name="Group 10033" transform="translate(74.488 -822)">
      <path id="Path_2" data-name="Path 2" d="M764.61,426.27l129.485,363.4H678.285L615.631,594.743H327.417L378.931,426.27Z" transform="translate(-218.205 1697.15)" fill="#f5f5f5"/>
      <g id="Group_10102" data-name="Group 10102">
        <g id="Group_10101" data-name="Group 10101">
          <path id="Path_1" data-name="Path 1" d="M760.909,779.015,662.055,462.953h-6.962L430.927,1185.577H216.51L554.846,216.51H760.909l199.1,562.5Z" transform="translate(-427.538 1301.244)" fill="#f5f5f5"/>
        </g>
        <rect id="Rectangle_1" data-name="Rectangle 1" width="193.534" height="690.6" transform="translate(756.605 1796.22)" fill="#f5f5f5"/>
        <path id="Path_3" data-name="Path 3" d="M633.6,354.132c38.981-32.025,84.933-44.556,135.056-44.556,40.378,0,90.5,11.14,130.877,32.025-16.708,47.34-51.517,132.271-66.832,179.613-33.412-16.71-73.8-30.633-114.169-30.633-27.848,0-58.481,6.958-84.933,22.277Z" transform="translate(359.7 1476.899)" fill="#f5f5f5"/>
      </g>
      <path id="Path_4" data-name="Path 4" d="M1117.433,995.089c-34.808,18.1-84.931,23.668-112.778,23.668-208.851,0-265.936-164.3-265.936-336.946,0-160.119,43.166-371.753,254.8-371.753,33.416,0,83.54,6.961,123.918,33.415V496.628c-19.492-9.741-44.552-16.706-69.618-16.706-98.854,0-112.776,107.211-112.776,194.928,0,93.287,16.706,179.612,116.952,179.612,22.277,0,47.34-4.179,65.441-12.531Z" transform="translate(558.093 1477.809)" fill="#f5f5f5"/>
      <rect id="Rectangle_2" data-name="Rectangle 2" width="194.925" height="971.851" transform="translate(1718.685 1796.22)" fill="#f5f5f5"/>
    </g>
  </g>
</svg>
